{
    "asset" : {
        "generator" : "Khronos glTF Blender I/O v1.5.17",
        "version" : "2.0"
    },
    "scene" : 0,
    "scenes" : [
        {
            "name" : "Scene",
            "nodes" : [
                0,
                1,
                2
            ]
        }
    ],
    "nodes" : [
        {
            "name" : "Light",
            "rotation" : [
                0.16907575726509094,
                0.7558803558349609,
                -0.27217137813568115,
                0.570947527885437
            ],
            "translation" : [
                4.076245307922363,
                5.903861999511719,
                -1.0054539442062378
            ]
        },
        {
            "name" : "Camera",
            "rotation" : [
                0.483536034822464,
                0.33687159419059753,
                -0.20870360732078552,
                0.7804827094078064
            ],
            "translation" : [
                7.358891487121582,
                4.958309173583984,
                6.925790786743164
            ]
        },
        {
            "mesh" : 0,
            "name" : "sprangle",
            "rotation" : [
                0.7071068286895752,
                0,
                0,
                0.7071067094802856
            ]
        }
    ],
    "materials" : [
        {
            "alphaMode" : "BLEND",
            "doubleSided" : true,
            "name" : "phong1SG",
            "pbrMetallicRoughness" : {
                "baseColorFactor" : [
                    0.07818734645843506,
                    0.03954625129699707,
                    0.7758224010467529,
                    1
                ],
                "metallicFactor" : 2,
                "roughnessFactor" : 0.06788092851638794
            }
        }
    ],
    "meshes" : [
        {
            "name" : "sprangle",
            "primitives" : [
                {
                    "attributes" : {
                        "POSITION" : 0,
                        "NORMAL" : 1,
                        "TEXCOORD_0" : 2
                    },
                    "indices" : 3,
                    "material" : 0
                }
            ]
        }
    ],
    "accessors" : [
        {
            "bufferView" : 0,
            "componentType" : 5126,
            "count" : 737,
            "max" : [
                3.5680909156799316,
                3.9761369228363037,
                2.2605350017547607
            ],
            "min" : [
                -3.5047690868377686,
                -1.0496690273284912,
                -3.9420719146728516
            ],
            "type" : "VEC3"
        },
        {
            "bufferView" : 1,
            "componentType" : 5126,
            "count" : 737,
            "type" : "VEC3"
        },
        {
            "bufferView" : 2,
            "componentType" : 5126,
            "count" : 737,
            "type" : "VEC2"
        },
        {
            "bufferView" : 3,
            "componentType" : 5123,
            "count" : 3060,
            "type" : "SCALAR"
        }
    ],
    "bufferViews" : [
        {
            "buffer" : 0,
            "byteLength" : 8844,
            "byteOffset" : 0
        },
        {
            "buffer" : 0,
            "byteLength" : 8844,
            "byteOffset" : 8844
        },
        {
            "buffer" : 0,
            "byteLength" : 5896,
            "byteOffset" : 17688
        },
        {
            "buffer" : 0,
            "byteLength" : 6120,
            "byteOffset" : 23584
        }
    ],
    "buffers" : [
        {
            "byteLength" : 29704,
            "uri" : "data:application/octet-stream;base64,"
        }
    ]
}
